<?xml version="1.0" encoding="UTF-8"?>
<svg xmlns="http://www.w3.org/2000/svg" xmlns:xlink="http://www.w3.org/1999/xlink" width="512" height="512" viewBox="0 0 128 128"><defs><linearGradient id="a" x1="109.107" y1="109.098" x2="18.756" y2="18.747" gradientUnits="userSpaceOnUse"><stop offset="0" stop-color="#eb008d"/><stop offset="1" stop-color="#0070ea"/></linearGradient></defs><path d="M69,60.75h57.032a1.749,1.749,0,0,0,1.745-1.889A63.988,63.988,0,0,0,69.139.224,1.749,1.749,0,0,0,67.25,1.968V59A1.75,1.75,0,0,0,69,60.75ZM70.75,3.892A60.116,60.116,0,0,1,124.108,57.25H70.75ZM126.032,67.25H76.071a1.75,1.75,0,0,0-1.237,2.987l35.329,35.329a1.745,1.745,0,0,0,1.237.513h.07a1.746,1.746,0,0,0,1.262-.614,63.448,63.448,0,0,0,15.045-36.325,1.751,1.751,0,0,0-1.745-1.889Zm-14.755,34.48L80.3,70.75h43.812A59.9,59.9,0,0,1,111.277,101.73ZM60.75,65.347V1.968A1.746,1.746,0,0,0,60.187.683,1.726,1.726,0,0,0,58.861.224a63.991,63.991,0,1,0,46.6,112.508,1.749,1.749,0,0,0,.1-2.569ZM64,124.5A60.492,60.492,0,0,1,57.25,3.893V66.071a1.754,1.754,0,0,0,.513,1.238l43.967,43.967A60.511,60.511,0,0,1,64,124.5ZM99.687,51a1.749,1.749,0,0,1-1.75,1.75H94.469a1.75,1.75,0,0,1,0-3.5h3.468A1.749,1.749,0,0,1,99.687,51Zm18.367,1.082a1.75,1.75,0,0,1-1.376.668h-8.147a1.75,1.75,0,0,1,0-3.5H114.4A51.929,51.929,0,0,0,78.75,13.6V49.25h5.125a1.75,1.75,0,0,1,0,3.5H77A1.75,1.75,0,0,1,75.25,51V11.321a1.749,1.749,0,0,1,2.163-1.7,55.455,55.455,0,0,1,40.966,40.966A1.752,1.752,0,0,1,118.054,52.082ZM94.147,78.237,109.2,93.287a1.75,1.75,0,0,0,1.237.513,1.629,1.629,0,0,0,.209-.013,1.75,1.75,0,0,0,1.287-.829,55.275,55.275,0,0,0,6.439-15.542,1.75,1.75,0,0,0-1.7-2.166H95.385a1.75,1.75,0,0,0-1.238,2.987Zm20.243.513a51.694,51.694,0,0,1-4.33,10.45L99.61,78.75ZM52.75,68.66l40.53,40.53a1.75,1.75,0,0,1-.332,2.735,56.171,56.171,0,0,1-10.691,5.008,1.75,1.75,0,1,1-1.143-3.309,52.681,52.681,0,0,0,8.076-3.574L49.763,70.622a1.75,1.75,0,0,1-.513-1.237V13.634A53.138,53.138,0,0,0,11.5,64,52.56,52.56,0,0,0,64,116.5a1.75,1.75,0,0,1,0,3.5A56.063,56.063,0,0,1,8,64,56.641,56.641,0,0,1,50.579,9.647a1.751,1.751,0,0,1,2.171,1.7Z" fill="url(#a)"/></svg>
