<svg data-v-1e121de1="" version="1.0"
	xmlns="http://www.w3.org/2000/svg"
	xmlns:xlink="http://www.w3.org/1999/xlink"  width="1230" height="300" viewBox="145 0 47.86000061035156 49.350006103515625">
	<defs>
		<linearGradient id="a" x1="0" y1="0" x2="80" y2="30" gradientUnits="userSpaceOnUse">
    	<stop offset="0" stop-color="#0070ea"/>
			<stop offset="1" stop-color="#eb008d"/>
		</linearGradient>
	</defs>
	<g fill="url(#a)">
		<g transform="translate(68,0)">
			<svg
				xmlns="http://www.w3.org/2000/svg" viewBox="0 0 47.86000061035156 49.350006103515625">
				<title>资源 10</title>
				<g id="图层_2" data-name="图层 2">
					<g id="Layer_1" data-name="Layer 1" fill="#0070ea">
						<path d="M8.38,23.2a.6.6,0,1,1-.6-.61A.6.6,0,0,1,8.38,23.2ZM7.78,21a.67.67,0,1,0,.67.67A.67.67,0,0,0,7.78,21Zm0,4.81a.48.48,0,0,0-.47.48.47.47,0,0,0,.94,0A.48.48,0,0,0,7.78,25.8ZM6.46,22.24a.63.63,0,0,0,.4-.58v0Zm1.32,2a.54.54,0,1,0,.53.54A.54.54,0,0,0,7.78,24.2ZM6.24,22.64h0l-.48.72a.56.56,0,0,0,.53.38.56.56,0,0,0,0-1.11Zm0,4.79a.4.4,0,0,0-.39.39.39.39,0,0,0,.39.38.38.38,0,0,0,.38-.38A.39.39,0,0,0,6.24,27.43Zm0,3.2a.27.27,0,1,0,.27.27A.27.27,0,0,0,6.24,30.63Zm0-1.6a.33.33,0,1,0,.33.33A.33.33,0,0,0,6.24,29Zm0-3.19a.44.44,0,1,0,.44.44A.44.44,0,0,0,6.24,25.84ZM7.78,27.4a.42.42,0,1,0,.42.42A.42.42,0,0,0,7.78,27.4Zm5.52-1.12a.63.63,0,0,0,.21.47l.7-1.06a.6.6,0,0,0-.27-.06A.65.65,0,0,0,13.3,26.28ZM8.24,19.54l-.81,1.22a.7.7,0,0,0,.35.09.73.73,0,0,0,.73-.73A.76.76,0,0,0,8.24,19.54Zm11.33,2.07-1.86-1.23-1.3,2a.91.91,0,0,1-.18-.21.85.85,0,0,1-.38.32.91.91,0,0,1,.31.27l-1.42,2.15a.61.61,0,0,1,0-.14.76.76,0,0,1,.58-.74.81.81,0,0,1-.62-.59.78.78,0,0,1-1.53-.21.79.79,0,0,1,.54-.74.84.84,0,0,1-.55-.52.82.82,0,0,1-.75.52.8.8,0,0,1-.79-.69.76.76,0,1,1-.93-.85.81.81,0,0,1-.61-.6.78.78,0,1,1-1-.94A.85.85,0,0,1,8.59,19l2.13-3.22L8.86,14.55l4.3-1.38h0l5.44-1.75Zm-9.42-6.84-.09-.09-.09.09.09.09Zm-.41,3.07a.86.86,0,0,1,.33.35.74.74,0,0,1,.29-.34,1,1,0,0,1-.3-.29A.79.79,0,0,1,9.74,17.84Zm.75,1.54a.88.88,0,0,1-.42-.41.84.84,0,0,1-.51.41.77.77,0,0,1,.51.53A.83.83,0,0,1,10.49,19.38Zm1.08-4.61,0,0,.05-.06,0,0Zm-.1,1.54a.8.8,0,0,1,.13.13l.12-.13-.12-.12Zm-.11,1.54a.85.85,0,0,1,.25.25.85.85,0,0,1,.21-.25,1.52,1.52,0,0,1-.22-.22A.85.85,0,0,1,11.36,17.85Zm-.13,1.53a.85.85,0,0,1,.38.39.9.9,0,0,1,.33-.39.87.87,0,0,1-.33-.33A.87.87,0,0,1,11.23,19.38Zm.85,1.54a.85.85,0,0,1-.47-.46.85.85,0,0,1-.57.46.76.76,0,0,1,.57.62A.8.8,0,0,1,12.08,20.92Zm1.07-6.18h0l0,0Zm-.07,1.57.06.06.07-.08-.06-.05A.23.23,0,0,1,13.08,16.31ZM13,17.85a.87.87,0,0,1,.16.17.83.83,0,0,1,.15-.17l-.15-.15A1.14,1.14,0,0,1,13,17.85Zm-.12,1.53a.89.89,0,0,1,.28.3.89.89,0,0,1,.25-.29,1.24,1.24,0,0,1-.25-.26A.83.83,0,0,1,12.86,19.38Zm.66,1.55a1,1,0,0,1-.38-.37.83.83,0,0,1-.42.36.82.82,0,0,1,.43.45A.81.81,0,0,1,13.52,20.93Zm1.16-4.64h0l0,0h0Zm-.09,1.56.09.1.09-.1-.09-.08Zm-.1,1.54a.73.73,0,0,1,.19.2,1.21,1.21,0,0,1,.19-.2l-.19-.18A1.09,1.09,0,0,1,14.49,19.39Zm-.13,1.54a.83.83,0,0,1,.33.34.74.74,0,0,1,.29-.34,1,1,0,0,1-.3-.29A.89.89,0,0,1,14.36,20.93Zm.75,1.53a.88.88,0,0,1-.42-.41.84.84,0,0,1-.5.41.78.78,0,0,1,.5.53A.83.83,0,0,1,15.11,22.46Zm2.66-4.64h0v0Zm-1.52-1.55Zm-.05,1.58,0,0,.05-.06s0,0,0,0S16.21,17.83,16.2,17.85Zm-.1,1.54a.74.74,0,0,1,.12.13l.12-.13-.12-.12Zm.35,1.54a1,1,0,0,1-.23-.22.8.8,0,0,1-.23.22,1,1,0,0,1,.24.25A.88.88,0,0,1,16.45,20.93Zm1.38-1.55,0-.05-.08.06.07.06Zm1.47,0h0l0,0h0Zm0,1.65.09-.1-.08-.08-.1.08ZM10.48,30.9a.37.37,0,0,0,.11.27l.42-.63-.15,0A.38.38,0,0,0,10.48,30.9ZM7.78,29a.37.37,0,1,0,.37.37A.38.38,0,0,0,7.78,29Zm0,1.6a.31.31,0,1,0,.31.31A.31.31,0,0,0,7.78,30.59Zm0,1.59a.26.26,0,1,0,.26.26A.26.26,0,0,0,7.78,32.18Zm0,1.6A.2.2,0,1,0,8,34,.2.2,0,0,0,7.78,33.78Zm-.15,1.74a.18.18,0,0,0,0,.09l.15-.23h0A.15.15,0,0,0,7.63,35.52Zm1.69-8.16a.46.46,0,1,0,.46.46A.47.47,0,0,0,9.32,27.36Zm0-1.59a.51.51,0,1,0,.51.51A.51.51,0,0,0,9.32,25.77Zm0,3.19a.4.4,0,1,0,.4.4A.4.4,0,0,0,9.32,29Zm0-6.41a.65.65,0,1,0,.64.65A.64.64,0,0,0,9.32,22.55Zm0-1.61a.72.72,0,1,0,.71.72A.71.71,0,0,0,9.32,20.94Zm0,3.22a.58.58,0,1,0,.58.58A.58.58,0,0,0,9.32,24.16ZM6.24,33.81a.17.17,0,1,0,.17.17A.18.18,0,0,0,6.24,33.81Zm0,1.6a.11.11,0,1,0,.11.11A.11.11,0,0,0,6.24,35.41Zm0,1.6a.06.06,0,0,0-.06.05.06.06,0,0,0,.06.06.06.06,0,0,0,0-.06A0,0,0,0,0,6.24,37Zm3.08-4.86a.29.29,0,1,0,.29.29A.29.29,0,0,0,9.32,32.15Zm0-1.6a.35.35,0,1,0,.35.35A.35.35,0,0,0,9.32,30.55ZM6.24,32.22a.22.22,0,1,0,.22.22A.22.22,0,0,0,6.24,32.22Zm6.16-6.54a.6.6,0,1,0,.6.6A.6.6,0,0,0,12.4,25.68Zm0-3.22a.74.74,0,1,0,.74.74A.74.74,0,0,0,12.4,22.46Zm0,4.83a.53.53,0,0,0-.53.53.53.53,0,0,0,.53.53h.06l.45-.69A.53.53,0,0,0,12.4,27.29ZM13.94,24a.72.72,0,0,0,0,1.43.72.72,0,0,0,0-1.43Zm-1.54.05a.67.67,0,0,0-.67.67.67.67,0,0,0,1.34,0A.67.67,0,0,0,12.4,24.07ZM10.86,22.5a.7.7,0,1,0,.69.7A.69.69,0,0,0,10.86,22.5Zm0,6.42a.44.44,0,0,0-.44.44.44.44,0,0,0,.88,0A.44.44,0,0,0,10.86,28.92ZM6.24,24.24a.5.5,0,1,0,0,1,.5.5,0,0,0,0-1Zm4.62,1.48a.55.55,0,0,0-.55.56.54.54,0,0,0,.55.55.55.55,0,0,0,.56-.55A.56.56,0,0,0,10.86,25.72Zm0-1.61a.63.63,0,1,0,.62.63A.63.63,0,0,0,10.86,24.11Zm0,3.22a.49.49,0,1,0,.49.49A.49.49,0,0,0,10.86,27.33ZM4.7,29.06a.31.31,0,0,0-.3.3.3.3,0,0,0,.3.29A.29.29,0,0,0,5,29.36.3.3,0,0,0,4.7,29.06Zm0,3.2a.18.18,0,1,0,0,.36.18.18,0,0,0,0-.36ZM3.16,33.89a.09.09,0,1,0,0,.18.09.09,0,0,0,0-.18ZM4.7,27.47a.34.34,0,0,0-.35.35.35.35,0,0,0,.35.35.35.35,0,0,0,.35-.35A.35.35,0,0,0,4.7,27.47Zm0-1.59a.4.4,0,1,0,.4.4A.4.4,0,0,0,4.7,25.88Zm0,4.78a.24.24,0,1,0,.24.24A.24.24,0,0,0,4.7,30.66Zm-.17-5.5a.47.47,0,0,0,.17,0,.47.47,0,0,0,.46-.46A.45.45,0,0,0,5,24.42Zm.17,8.69a.13.13,0,1,0,.13.13A.13.13,0,0,0,4.7,33.85Zm0,1.6a.07.07,0,1,0,.07.07A.07.07,0,0,0,4.7,35.45Zm0,1.61,0,0,0,0a0,0,0,0,0,0,0A0,0,0,0,0,4.72,37.06ZM3.16,27.51a.31.31,0,1,0,.31.31A.31.31,0,0,0,3.16,27.51ZM1.62,32.33a.11.11,0,1,0,.11.11A.11.11,0,0,0,1.62,32.33Zm0,1.59a.06.06,0,1,0,0,.12.06.06,0,0,0,0-.12Zm0-3.19a.17.17,0,0,0,0,.34.17.17,0,0,0,0-.34Zm0-1.15h0a.22.22,0,0,0,.22-.22.29.29,0,0,0,0-.09ZM.08,32.36a.08.08,0,0,0,0,.16.08.08,0,0,0,0-.16Zm0,1.6s0,0,0,0,0,0,0,0a0,0,0,0,0,0,0Zm3.08-1.67a.15.15,0,1,0,.15.15A.15.15,0,0,0,3.16,32.29Zm0-1.6A.21.21,0,0,0,3,30.9a.2.2,0,0,0,.21.2.2.2,0,0,0,.2-.2A.21.21,0,0,0,3.16,30.69Zm0-1.59a.26.26,0,0,0,0,.52.26.26,0,0,0,0-.52Zm0,6.38a0,0,0,0,0,0,.08,0,0,0,0,0,0-.08A0,0,0,0,0,3.16,35.48Z"></path>
						<path d="M21.37,25.23a.18.18,0,0,1-.19.19.19.19,0,0,1-.19-.19.2.2,0,0,1,.19-.19A.19.19,0,0,1,21.37,25.23Zm-.19,1.4a.14.14,0,0,0-.14.14.15.15,0,0,0,.14.15.15.15,0,0,0,.15-.15A.15.15,0,0,0,21.18,26.63Zm0,1.58a.1.1,0,0,0-.1.1.1.1,0,0,0,.2,0A.1.1,0,0,0,21.18,28.21Zm0,3.18,0,0a0,0,0,0,0,0,0s0,0,0,0S21.16,31.38,21.16,31.39Zm1.56,0s0,0,0,0a.05.05,0,0,0,0,.05,0,0,0,0,0,.05-.05A0,0,0,0,0,22.72,31.35Zm0-1.59a.09.09,0,1,0,.09.09A.09.09,0,0,0,22.72,29.76Zm0,3.17h0ZM18.1,29.85h0Zm4.62-1.67a.13.13,0,0,0,0,.26.13.13,0,0,0,0-.26ZM47.86,15.5l-2.73-1.8L45,13.61l0,0-.41-.27L43.5,15h0a.92.92,0,0,1-.25.23l.08.05-1,1.49a1,1,0,0,1-.39-.38.89.89,0,0,1-.43.38.75.75,0,0,1,.43.46l-1.53.49v0l-1.22.4a.79.79,0,0,1-.3-.61.76.76,0,0,1,.56-.74.84.84,0,0,1-.57-.56.79.79,0,0,1-1.54-.15.75.75,0,0,1-.75.67.76.76,0,0,1-.77-.76.77.77,0,0,1,.6-.75.79.79,0,0,1-.62-.61.78.78,0,0,1-.75.59.77.77,0,0,1-.78-.77.79.79,0,0,1,.56-.75.83.83,0,0,1-.57-.54.79.79,0,0,1-.72.54.75.75,0,1,1-.06,0,.78.78,0,0,1-.76-.68.76.76,0,1,1-.92-.86.79.79,0,0,1-.62-.6.78.78,0,0,1-1.54-.19.8.8,0,0,1,.55-.75.81.81,0,0,1-.55-.54.8.8,0,0,1-.73.54.75.75,0,0,1,.72.75.75.75,0,0,1-1.42.32l1.41-2.15,0,0a.42.42,0,0,1,.06-.14l.06-.1a1,1,0,0,1,.29-.25L30,9l1-1.47a1,1,0,0,1,.25.26.72.72,0,0,1,.25-.27,1.07,1.07,0,0,1-.26-.26.66.66,0,0,1-.18.19l1.42-2.17-1.19-.79.05-.06a.76.76,0,0,1-.09-.09l-.08.07L29.16,3.17,44.67,0l.55,2.68a.83.83,0,0,1-.16.21.86.86,0,0,1,.18-.14ZM31.21,2.91s0,0,0,0l-.05,0s0,0,0,0ZM30.8,9.08a.92.92,0,0,1,.38.4.78.78,0,0,1,.35-.39.88.88,0,0,1-.35-.34A1,1,0,0,1,30.8,9.08Zm.84,1.54a.83.83,0,0,1-.46-.44.81.81,0,0,1-.53.44.79.79,0,0,1,.53.55A.82.82,0,0,1,31.64,10.62Zm1.08-7.71h0v0S32.72,2.9,32.72,2.91Zm-.06,1.55.06.06.05-.06a.12.12,0,0,1-.05,0ZM32.58,6a.8.8,0,0,1,.13.13L32.84,6a.34.34,0,0,1-.12-.12A.86.86,0,0,1,32.58,6ZM32.5,7.55a.88.88,0,0,1,.22.21.8.8,0,0,1,.2-.21,1.34,1.34,0,0,1-.21-.2A1.34,1.34,0,0,1,32.5,7.55Zm-.1,1.54a.89.89,0,0,1,.32.32A.79.79,0,0,1,33,9.09a1.07,1.07,0,0,1-.28-.28A.87.87,0,0,1,32.4,9.09Zm-.11,1.53a.84.84,0,0,1,.43.44.86.86,0,0,1,.38-.44.82.82,0,0,1-.38-.38A.88.88,0,0,1,32.29,10.62Zm.93,1.54a.81.81,0,0,1-.5-.49.81.81,0,0,1-.59.49.77.77,0,0,1,.59.63A.79.79,0,0,1,33.22,12.16Zm1-7.7h0l0,0h0ZM34.17,6l.08.09L34.33,6l-.08-.07A.27.27,0,0,1,34.17,6ZM34.1,7.55a1.14,1.14,0,0,1,.15.16l.15-.16s-.1-.09-.15-.15A.71.71,0,0,1,34.1,7.55ZM34,9.09a.85.85,0,0,1,.25.25.88.88,0,0,1,.22-.25,1,1,0,0,1-.23-.23A.88.88,0,0,1,34,9.09Zm-.1,1.53a.87.87,0,0,1,.35.36.9.9,0,0,1,.31-.36.77.77,0,0,1-.31-.31A.87.87,0,0,1,33.91,10.62Zm.77,1.55a.88.88,0,0,1-.42-.41.84.84,0,0,1-.47.4.83.83,0,0,1,.47.5A.82.82,0,0,1,34.68,12.17Zm1.13-7.73Zm0,1.56,0,0,0,0,0,0Zm-.08,1.55.11.11a.52.52,0,0,1,.1-.11l-.1-.1Zm-.08,1.54a.81.81,0,0,1,.18.19A.82.82,0,0,1,36,9.09a1,1,0,0,1-.17-.18A1.07,1.07,0,0,1,35.61,9.09Zm-.09,1.53a1,1,0,0,1,.28.29.84.84,0,0,1,.25-.28,1.24,1.24,0,0,1-.26-.25A.78.78,0,0,1,35.52,10.62Zm-.11,1.55a.82.82,0,0,1,.39.39.83.83,0,0,1,.35-.39.84.84,0,0,1-.35-.35A.94.94,0,0,1,35.41,12.17Zm.85,1.54a.86.86,0,0,1-.46-.46.81.81,0,0,1-.54.45.78.78,0,0,1,.54.56A.8.8,0,0,1,36.26,13.71ZM37.34,6h0l0,0Zm-.06,1.56,0,.06.06-.07,0,0ZM37.2,9.09l.13.13a.8.8,0,0,1,.13-.13A.8.8,0,0,1,37.33,9Zm-.08,1.54a1.1,1.1,0,0,1,.22.21.8.8,0,0,1,.2-.21,1.34,1.34,0,0,1-.21-.2A1,1,0,0,1,37.12,10.63ZM37,12.17a.89.89,0,0,1,.32.32.87.87,0,0,1,.28-.32,1.07,1.07,0,0,1-.28-.28A1,1,0,0,1,37,12.17Zm-.11,1.54a.82.82,0,0,1,.43.43.86.86,0,0,1,.38-.44.82.82,0,0,1-.38-.38A1,1,0,0,1,36.91,13.71Zm.94,1.54a.85.85,0,0,1-.51-.49.8.8,0,0,1-.59.48.77.77,0,0,1,.59.66A.8.8,0,0,1,37.85,15.25Zm1-7.71h0l0,0h0Zm-.07,1.55.09.08A.27.27,0,0,1,39,9.09L38.88,9Zm-.07,1.54a1.21,1.21,0,0,1,.16.16,1.07,1.07,0,0,1,.14-.16.67.67,0,0,1-.14-.15A.75.75,0,0,1,38.72,10.63Zm-.09,1.54a.85.85,0,0,1,.25.25.88.88,0,0,1,.22-.25,1,1,0,0,1-.22-.23A.92.92,0,0,1,38.63,12.17Zm-.1,1.53a.93.93,0,0,1,.35.36.83.83,0,0,1,.32-.35,1.05,1.05,0,0,1-.32-.31A.92.92,0,0,1,38.53,13.7Zm.77,1.55a.9.9,0,0,1-.42-.42.88.88,0,0,1-.47.42.76.76,0,0,1,.47.49A.85.85,0,0,1,39.3,15.25Zm1.13-7.73Zm0,1.57,0,0,0,0,0,0S40.4,9.07,40.39,9.09Zm-.08,1.54.11.11a.52.52,0,0,1,.1-.11.47.47,0,0,1-.1-.1A.52.52,0,0,1,40.31,10.63Zm-.08,1.54a1.14,1.14,0,0,1,.19.19,1,1,0,0,1,.17-.19,1,1,0,0,1-.17-.18A1.07,1.07,0,0,1,40.23,12.17Zm-.09,1.54a.93.93,0,0,1,.28.28,1,1,0,0,1,.25-.28.85.85,0,0,1-.25-.25A1.12,1.12,0,0,1,40.14,13.71ZM40,15.25a.82.82,0,0,1,.39.39.83.83,0,0,1,.35-.39.84.84,0,0,1-.35-.35A.94.94,0,0,1,40,15.25Zm.85,1.54a.86.86,0,0,1-.46-.46.86.86,0,0,1-.54.46.75.75,0,0,1,.54.55A.8.8,0,0,1,40.88,16.79ZM42,9.07h0l0,0Zm-.06,1.56.06.06,0-.07,0,0Zm-.08,1.54a.86.86,0,0,1,.14.13.74.74,0,0,1,.12-.13A.74.74,0,0,1,42,12Zm-.08,1.54a.77.77,0,0,1,.22.22.7.7,0,0,1,.2-.22.76.76,0,0,1-.2-.2A.83.83,0,0,1,41.74,13.71Zm.5,1.54A.93.93,0,0,1,42,15a.87.87,0,0,1-.32.28.82.82,0,0,1,.32.32A.87.87,0,0,1,42.24,15.25Zm1.25-4.63v0l0,0h0Zm-.07,1.55a.6.6,0,0,1,.08.08l.07-.08-.07-.07A.27.27,0,0,0,43.42,12.17Zm.23,1.54a.71.71,0,0,1-.15-.15.75.75,0,0,1-.16.15,1.21,1.21,0,0,1,.16.16A.75.75,0,0,1,43.65,13.71Zm1.4-3.11Zm0,1.55,0,0,0,0,0,0Zm1.5,0h0l0,0Zm0,1.62s0,0,.05-.06a.12.12,0,0,0-.05-.05l-.06.05ZM19.64,28.24a.08.08,0,0,0-.08.07.08.08,0,1,0,.16,0A.08.08,0,0,0,19.64,28.24Zm0,1.58a0,0,0,0,0,0,0s0,0,0,0a0,0,0,0,0,0,0S19.66,29.82,19.64,29.82Zm1.54,0a.06.06,0,1,0,.06.06A.06.06,0,0,0,21.18,29.79Zm-1.54-3.14a.12.12,0,0,0-.12.12.12.12,0,0,0,.24,0A.12.12,0,0,0,19.64,26.65Zm13.87-8.17a.58.58,0,0,0-.59.59.59.59,0,0,0,.59.59.6.6,0,0,0,.59-.59A.59.59,0,0,0,33.51,18.48ZM24.26,31.32a.07.07,0,0,0-.07.07.07.07,0,0,0,.07.08.07.07,0,0,0,.08-.08A.07.07,0,0,0,24.26,31.32ZM25.8,21.8a.35.35,0,0,0-.35.35.34.34,0,0,0,.21.32l.45-.14a.37.37,0,0,0,.05-.18A.35.35,0,0,0,25.8,21.8Zm0-3.17a.44.44,0,0,0-.43.44.43.43,0,0,0,.43.43.44.44,0,0,0,.44-.43A.44.44,0,0,0,25.8,18.63Zm0-1.58a.48.48,0,0,0-.48.48.49.49,0,0,0,.48.48.48.48,0,0,0,.48-.48A.47.47,0,0,0,25.8,17.05Zm-1.54,3.19a.37.37,0,0,0,0,.74.37.37,0,0,0,0-.74Zm0,12.66a0,0,0,0,0,0,0s0,0,0,0a0,0,0,0,0,0,0S24.28,32.9,24.26,32.9Zm0-4.75a.16.16,0,0,0,0,.32.16.16,0,0,0,0-.32Zm0,1.58a.13.13,0,0,0-.12.12.12.12,0,0,0,.12.12.12.12,0,0,0,.12-.12A.12.12,0,0,0,24.26,29.73Zm3.08-8a.4.4,0,0,0-.37.28l.62-.2A.41.41,0,0,0,27.34,21.77Zm3.08-1.64a.48.48,0,0,0-.47.48.46.46,0,0,0,.23.41l.68-.22a.38.38,0,0,0,0-.19A.48.48,0,0,0,30.42,20.13ZM27.34,18.6a.47.47,0,1,0,.47.47A.47.47,0,0,0,27.34,18.6Zm0-1.58a.51.51,0,1,0,.51.51A.51.51,0,0,0,27.34,17Zm3.08-4.84a.73.73,0,1,0,.73.73A.73.73,0,0,0,30.42,12.18Zm-4.62,8a.4.4,0,0,0,0,.8.4.4,0,0,0,0-.8Zm-1.54,6.36a.2.2,0,1,0,.2.2A.2.2,0,0,0,24.26,26.57Zm3.08-6.38a.42.42,0,1,0,.43.42A.42.42,0,0,0,27.34,20.19Zm0-4.76a.56.56,0,1,0,.56.56A.56.56,0,0,0,27.34,15.43Zm.41-3L27,13.48a.62.62,0,0,0,.32.09.66.66,0,0,0,.41-1.18Zm-5,14.21a.18.18,0,0,0-.17.17.17.17,0,0,0,.17.17.16.16,0,0,0,.17-.17A.17.17,0,0,0,22.72,26.6ZM25.8,15.46h-.09l-.42.64a.53.53,0,0,0,1-.12A.53.53,0,0,0,25.8,15.46Zm-1.72,2.48a.39.39,0,0,0,.18,0,.46.46,0,0,0,.46-.45.45.45,0,0,0-.15-.33Zm-2.94,4.47h0a.27.27,0,0,0,.27-.27A.24.24,0,0,0,21.4,22Zm3.12-3.75a.41.41,0,1,0,0,.82.41.41,0,1,0,0-.82ZM18.1,28.27a0,0,0,0,0-.05,0,.05.05,0,1,0,.1,0A0,0,0,0,0,18.1,28.27Zm1.54-3.2a.16.16,0,1,0,.16.16A.16.16,0,0,0,19.64,25.07Zm1.54-1.61a.23.23,0,1,0,.23.23A.23.23,0,0,0,21.18,23.46ZM24.26,25a.24.24,0,0,0-.24.24.24.24,0,0,0,.24.24.24.24,0,0,0,.25-.24A.25.25,0,0,0,24.26,25Zm0-3.16a.32.32,0,1,0,0,.64.32.32,0,1,0,0-.64Zm4.34,4.94a.36.36,0,0,0,0,.11l.26-.39A.28.28,0,0,0,28.6,26.77ZM24.26,23.4a.29.29,0,0,0,0,.58.29.29,0,1,0,0-.58Zm2.12-8.94L26,15A.58.58,0,0,0,26.38,14.46Zm1-.62a.61.61,0,1,0,0,1.22.61.61,0,1,0,0-1.22Zm3.08,4.7a.52.52,0,0,0-.52.53.52.52,0,0,0,.52.52.52.52,0,0,0,.53-.52A.53.53,0,0,0,30.42,18.54Zm-1.54-6.33a.7.7,0,1,0,.7.7A.69.69,0,0,0,28.88,12.21Zm-6.16,8.06a.32.32,0,0,0-.23.09l-.09.13a.5.5,0,0,0,0,.12.34.34,0,1,0,.34-.34Zm4.62,6.25a.25.25,0,0,0-.25.25.26.26,0,0,0,.25.26.26.26,0,0,0,.26-.26A.26.26,0,0,0,27.34,26.52Zm0-1.59a.31.31,0,0,0-.3.3.3.3,0,0,0,.3.3.29.29,0,0,0,.3-.3A.3.3,0,0,0,27.34,24.93Zm0,3.17a.21.21,0,0,0-.21.21.22.22,0,1,0,.43,0A.21.21,0,0,0,27.34,28.1ZM25.8,25a.27.27,0,1,0,.27.27A.27.27,0,0,0,25.8,25Zm0,3.16a.2.2,0,0,0-.19.19.19.19,0,0,0,.19.19.18.18,0,0,0,.19-.19A.19.19,0,0,0,25.8,28.12ZM30.42,17a.58.58,0,1,0,.58.58A.58.58,0,0,0,30.42,17ZM25.8,26.54a.23.23,0,0,0,0,.46.23.23,0,0,0,0-.46Zm0,3.17a.14.14,0,0,0-.14.14.15.15,0,0,0,.14.15.15.15,0,0,0,.15-.15A.15.15,0,0,0,25.8,29.71Zm7.71-14.42a.7.7,0,1,0,.69.7A.7.7,0,0,0,33.51,15.29ZM22.72,21.85a.3.3,0,0,0,0,.6.3.3,0,0,0,0-.6Zm6.16-3.27a.49.49,0,1,0,.5.49A.49.49,0,0,0,28.88,18.58Zm-6.16,4.85a.26.26,0,0,0,0,.52.26.26,0,1,0,0-.52Zm6.16-9.63a.65.65,0,1,0,.65.65A.65.65,0,0,0,28.88,13.8ZM22.72,25a.21.21,0,1,0,0,.42.21.21,0,1,0,0-.42Zm6.16-9.63a.6.6,0,0,0-.59.6.6.6,0,0,0,1.19,0A.6.6,0,0,0,28.88,15.39Zm0,1.6a.54.54,0,0,0,0,1.08.54.54,0,1,0,0-1.08Zm0,3.17a.45.45,0,1,0,.45.45A.45.45,0,0,0,28.88,20.16Zm4.63-3.27a.64.64,0,1,0,.64.64A.64.64,0,0,0,33.51,16.89ZM32,13.73a.72.72,0,1,0,.72.72A.71.71,0,0,0,32,13.73Zm0,4.78a.56.56,0,1,0,.56.56A.56.56,0,0,0,32,18.51Zm0-3.18a.66.66,0,0,0,0,1.32.66.66,0,1,0,0-1.32Zm0,1.59a.61.61,0,1,0,.62.61A.61.61,0,0,0,32,16.92Zm-1.54-1.56a.63.63,0,1,0,.63.63A.63.63,0,0,0,30.42,15.36Zm0-1.59a.68.68,0,0,0,0,1.36.68.68,0,1,0,0-1.36ZM32,20.1a.5.5,0,0,0-.5.51h0l.92-.29A.51.51,0,0,0,32,20.1Zm3.09-1.66a.63.63,0,0,0-.63.63.62.62,0,0,0,.26.51l1-.31a.64.64,0,0,0,0-.2A.63.63,0,0,0,35.05,18.44Zm0-3.18a.73.73,0,0,0-.73.73.73.73,0,1,0,.73-.73Zm3.08,1.53a.74.74,0,1,0,0,1.48.74.74,0,0,0,0-1.48Zm-.55,1.86.75-.24a.64.64,0,0,0-.2,0A.69.69,0,0,0,37.58,18.65Zm-2.53-1.8a.68.68,0,0,0,0,1.36.68.68,0,0,0,0-1.36Zm-9.56,6.84a.31.31,0,0,0,.31.31.3.3,0,0,0,.3-.22l-.49-.33A.31.31,0,0,0,25.49,23.69Zm11.1-6.87a.71.71,0,1,0,.71.71A.71.71,0,0,0,36.59,16.82Zm0,1.59a.66.66,0,0,0-.67.66.43.43,0,0,0,0,.11l1.24-.4A.66.66,0,0,0,36.59,18.41Z"></path>
						<path d="M26,41.41a.42.42,0,0,1-.42.42.41.41,0,0,1-.41-.42.41.41,0,0,1,.41-.41A.41.41,0,0,1,26,41.41Zm-.42,1.17A.37.37,0,1,0,26,43,.38.38,0,0,0,25.58,42.58Zm0-3.17a.45.45,0,0,0-.46.46.46.46,0,0,0,.46.47.47.47,0,0,0,.47-.47A.46.46,0,0,0,25.58,39.41Zm0,4.77a.32.32,0,1,0,0,.63.32.32,0,1,0,0-.63Zm0,3.18a.21.21,0,0,0-.21.21.21.21,0,1,0,.42,0A.21.21,0,0,0,25.58,47.36Zm-.29-11.54a.54.54,0,0,0,.29.07.64.64,0,0,0,.65-.64.67.67,0,0,0-.24-.5Zm.29,10a.27.27,0,0,0,0,.53.27.27,0,1,0,0-.53Zm1.54-11.21a.69.69,0,1,0,.69.69A.69.69,0,0,0,27.12,34.56Zm-2.56,2.36-.2.3A.55.55,0,0,0,24.56,36.92Zm-.52.93h-.1l-.37.56a.48.48,0,1,0,.47-.57Zm1.54-1.64a.58.58,0,1,0,.58.58A.58.58,0,0,0,25.58,36.21Zm0,1.6a.52.52,0,0,0,0,1,.52.52,0,0,0,0-1ZM24,49a.12.12,0,0,0-.13.12.13.13,0,1,0,.26,0A.12.12,0,0,0,24,49Zm3.08-.07a.19.19,0,0,0-.2.19.2.2,0,0,0,.4,0A.19.19,0,0,0,27.12,48.92Zm0-12.75a.62.62,0,1,0,.63.62A.62.62,0,0,0,27.12,36.17ZM32.84,46a.43.43,0,0,0,.12.3l.47-.71a.33.33,0,0,0-.15,0A.44.44,0,0,0,32.84,46ZM24,47.39a.18.18,0,1,0,.18.18A.18.18,0,0,0,24,47.39Zm21.1-13.62L42.43,32,38.79,37.5a1.07,1.07,0,0,1-.14-.16,1.08,1.08,0,0,1-.3.26.67.67,0,0,1,.23.21L37.12,40a.09.09,0,0,0,0-.05.3.3,0,0,1,0,.1l-.25.38a.74.74,0,0,1-.48.17.76.76,0,0,1-.76-.76.77.77,0,0,1,.59-.74.82.82,0,0,1-.62-.6.78.78,0,0,1-.75.58.78.78,0,0,1-.23-1.52.83.83,0,0,1-.56-.53.79.79,0,0,1-1.54-.22.75.75,0,1,1-.88-.79.8.8,0,0,1-.66-.61.77.77,0,1,1-1-.93.82.82,0,0,1-.58-.55.78.78,0,0,1-.75.54.79.79,0,0,1-.79-.78.75.75,0,0,1-.75.74.73.73,0,0,1-.66-.42l1.67-2.54.11-.07,0,0,1-1.52a1,1,0,0,1,.21.21.86.86,0,0,1,.18-.2,1.14,1.14,0,0,1-.24-.25l2.9-4.38-2.72-1.79,4.41-1.42.11.09-.08-.1,4.65-1.48.06,0s0,0,0-.05l5.11-1.64ZM28.37,33a.83.83,0,0,1-.5-.49.79.79,0,0,1-.66.49.75.75,0,0,1,.66.73A.79.79,0,0,1,28.37,33Zm.72-1.54a.92.92,0,0,1,.32.33,1,1,0,0,1,.28-.33.9.9,0,0,1-.28-.27A1,1,0,0,1,29.09,31.43ZM29.82,33a.86.86,0,0,1-.41-.39A.84.84,0,0,1,29,33a.75.75,0,0,1,.46.49A.86.86,0,0,1,29.82,33Zm1.09-4.61,0,0,.05-.05,0,0Zm-.09,1.54a.74.74,0,0,1,.12.13.8.8,0,0,1,.13-.13.68.68,0,0,1-.12-.12Zm-.11,1.53a.91.91,0,0,1,.24.24.77.77,0,0,1,.21-.23,1.52,1.52,0,0,1-.22-.22A.66.66,0,0,1,30.71,31.43ZM30.59,33a.92.92,0,0,1,.36.37.93.93,0,0,1,.31-.37,1,1,0,0,1-.31-.3A1,1,0,0,1,30.59,33Zm.8,1.55a.9.9,0,0,1-.44-.44.84.84,0,0,1-.53.43.79.79,0,0,1,.53.55A.8.8,0,0,1,31.39,34.52Zm1.1-6.18h0l0,0Zm-.07,1.56.07.06.06-.07-.06-.06Zm-.09,1.54a.81.81,0,0,1,.16.16,1.07,1.07,0,0,1,.14-.16l-.14-.15ZM32.22,33a.9.9,0,0,1,.27.28.78.78,0,0,1,.24-.27.91.91,0,0,1-.24-.24A1.18,1.18,0,0,1,32.22,33Zm-.13,1.55a.78.78,0,0,1,.4.4.86.86,0,0,1,.35-.4,1,1,0,0,1-.35-.35A1,1,0,0,1,32.09,34.52ZM33,36.05a.87.87,0,0,1-.49-.47.82.82,0,0,1-.61.47.75.75,0,0,1,.61.69A.81.81,0,0,1,33,36.05Zm1-6.16h0l0,0h0Zm-.09,1.55.1.09a.34.34,0,0,1,.08-.09.6.6,0,0,1-.08-.08ZM33.84,33a.86.86,0,0,1,.19.19A1.54,1.54,0,0,1,34.2,33,1,1,0,0,1,34,32.8,1.07,1.07,0,0,1,33.84,33Zm-.12,1.54a.77.77,0,0,1,.31.31,1,1,0,0,1,.27-.31,1,1,0,0,1-.27-.27A1,1,0,0,1,33.72,34.52Zm.7,1.53a.89.89,0,0,1-.39-.38.89.89,0,0,1-.45.38.8.8,0,0,1,.45.47A.87.87,0,0,1,34.42,36.05Zm1.17-6.19Zm-.05,1.58,0,0,0-.06,0,0ZM35.44,33l.13.13a.69.69,0,0,1,.11-.13l-.11-.11A.69.69,0,0,1,35.44,33Zm-.1,1.53a1,1,0,0,1,.23.23.83.83,0,0,1,.2-.22,1.34,1.34,0,0,1-.2-.21A.87.87,0,0,1,35.34,34.51Zm-.12,1.54a.87.87,0,0,1,.35.36.83.83,0,0,1,.31-.36.81.81,0,0,1-.31-.3A.92.92,0,0,1,35.22,36.05ZM36,37.6a.9.9,0,0,1-.43-.43.79.79,0,0,1-.51.42.79.79,0,0,1,.51.54A.8.8,0,0,1,36,37.6Zm1.11-6.19h0a0,0,0,0,1,0,0ZM37.05,33l.06.06.06-.07-.05,0ZM37,34.52a1.14,1.14,0,0,1,.16.15,1,1,0,0,1,.14-.15l-.14-.14A1.07,1.07,0,0,1,37,34.52Zm-.1,1.53a.84.84,0,0,1,.26.27,1,1,0,0,1,.23-.26,1,1,0,0,1-.23-.23A.92.92,0,0,1,36.85,36.05Zm-.13,1.55a.82.82,0,0,1,.39.39.83.83,0,0,1,.35-.39.88.88,0,0,1-.35-.34A.86.86,0,0,1,36.72,37.6Zm.87,1.53a.84.84,0,0,1-.48-.46.83.83,0,0,1-.57.46.75.75,0,0,1,.57.63A.81.81,0,0,1,37.59,39.13Zm1-6.16h0l0,0Zm-.08,1.55a.38.38,0,0,1,.09.09.31.31,0,0,1,.07-.09.46.46,0,0,0-.07-.07Zm.26,1.54a.69.69,0,0,1-.17-.17,1.45,1.45,0,0,1-.18.17.77.77,0,0,1,.18.18A1.45,1.45,0,0,1,38.82,36.06Zm1.41-1.57h0a.1.1,0,0,0,0,0l0,0ZM27.12,47.33a.25.25,0,1,0,.25.24A.25.25,0,0,0,27.12,47.33Zm0-8a.5.5,0,1,0,0,1,.5.5,0,0,0,0-1Zm0,1.59a.45.45,0,1,0,.45.45A.45.45,0,0,0,27.12,41Zm0-3.19a.56.56,0,1,0,.56.56A.56.56,0,0,0,27.12,37.77Zm0,6.37a.35.35,0,0,0-.35.35.35.35,0,0,0,.7,0A.35.35,0,0,0,27.12,44.14Zm0,1.59a.31.31,0,0,0-.3.3.3.3,0,0,0,.3.3.29.29,0,0,0,.3-.3A.3.3,0,0,0,27.12,45.73Zm0-3.18a.4.4,0,1,0,.4.4A.4.4,0,0,0,27.12,42.55Zm3.08,1.52a.42.42,0,1,0,.42.42A.42.42,0,0,0,30.2,44.07Zm0-1.59a.47.47,0,1,0,.47.47A.47.47,0,0,0,30.2,42.48Zm0,3.19a.37.37,0,1,0,0,.73.37.37,0,1,0,0-.73Zm0,3.17a.27.27,0,1,0,.27.27A.27.27,0,0,0,30.2,48.84Zm0-8a.52.52,0,0,0-.52.52.52.52,0,0,0,.52.53.53.53,0,0,0,.53-.53A.52.52,0,0,0,30.2,40.89Zm0-4.81a.71.71,0,1,0,.72.71A.71.71,0,0,0,30.2,36.08Zm0,1.6a.65.65,0,1,0,.65.65A.65.65,0,0,0,30.2,37.68ZM31.74,44a.45.45,0,0,0-.45.45.46.46,0,0,0,.45.46.47.47,0,0,0,.46-.46A.46.46,0,0,0,31.74,44ZM30.2,39.29a.58.58,0,0,0-.58.58.59.59,0,1,0,1.17,0A.58.58,0,0,0,30.2,39.29Zm-1.54,0a.54.54,0,1,0,.54.54A.54.54,0,0,0,28.66,39.33Zm0,1.59a.49.49,0,1,0,.49.49A.49.49,0,0,0,28.66,40.92Zm0,1.6a.43.43,0,0,0-.43.43.44.44,0,0,0,.43.44A.44.44,0,0,0,29.1,43,.44.44,0,0,0,28.66,42.52Zm0-6.4a.67.67,0,0,0,0,1.34.67.67,0,0,0,0-1.34Zm0,1.6a.61.61,0,0,0-.6.61.61.61,0,1,0,1.21,0A.61.61,0,0,0,28.66,37.72Zm0-3.2a.73.73,0,1,0,.73.73A.73.73,0,0,0,28.66,34.52Zm0,9.59a.39.39,0,0,0,0,.77.39.39,0,1,0,0-.77Zm1.54,3.14a.33.33,0,0,0-.32.32.32.32,0,0,0,.32.32.32.32,0,0,0,.32-.32A.32.32,0,0,0,30.2,47.25Zm3.08-9.65a.73.73,0,1,0,.74.73A.73.73,0,0,0,33.28,37.6Zm0,1.6a.67.67,0,1,0,.67.67A.67.67,0,0,0,33.28,39.2Zm1.54-.05a.72.72,0,1,0,.72.72A.71.71,0,0,0,34.82,39.15Zm0,3.21a.59.59,0,0,0,0,1.18l.55-.83A.59.59,0,0,0,34.82,42.36Zm.85-1a.68.68,0,0,0,.21.5l.76-1.14a.67.67,0,0,0-.28-.06A.7.7,0,0,0,35.67,41.41Zm-.85-.65a.65.65,0,0,0,0,1.3.65.65,0,1,0,0-1.3Zm-1.54,0a.61.61,0,0,0,0,1.22.61.61,0,1,0,0-1.22Zm-1.54,0a.57.57,0,1,0,0,1.14.57.57,0,1,0,0-1.14Zm0-1.6a.63.63,0,1,0,.63.63A.63.63,0,0,0,31.74,39.24Zm0,6.39a.41.41,0,0,0,0,.81.41.41,0,1,0,0-.81Zm0-3.18a.5.5,0,0,0-.5.5.5.5,0,0,0,.5.51.51.51,0,0,0,.51-.51A.5.5,0,0,0,31.74,42.45Zm1.54-.05a.55.55,0,0,0-.55.55.55.55,0,0,0,.55.55.54.54,0,0,0,.55-.55A.55.55,0,0,0,33.28,42.4Zm-1.54-4.76a.69.69,0,1,0,.69.69A.69.69,0,0,0,31.74,37.64ZM33.28,44a.49.49,0,1,0,.49.49A.49.49,0,0,0,33.28,44Zm-1.54,3.22a.36.36,0,0,0,0,.71.32.32,0,0,0,.23-.09l.11-.17a.3.3,0,0,0,0-.1A.36.36,0,0,0,31.74,47.22ZM28.66,45.7a.34.34,0,0,0,0,.67.34.34,0,1,0,0-.67ZM22.5,47.43a.14.14,0,0,0-.14.14.14.14,0,0,0,.28,0A.14.14,0,0,0,22.5,47.43ZM21,45.88a.16.16,0,0,0-.16.15.16.16,0,0,0,.32,0A.16.16,0,0,0,21,45.88Zm1.54-4.81a.35.35,0,0,0-.35.34.35.35,0,0,0,.7,0A.35.35,0,0,0,22.5,41.07Zm0,4.77a.19.19,0,0,0-.19.19.19.19,0,1,0,.38,0A.19.19,0,0,0,22.5,45.84Zm0-1.59a.25.25,0,1,0,.24.24A.24.24,0,0,0,22.5,44.25ZM21,47.47a.1.1,0,0,0-.11.1.11.11,0,0,0,.22,0A.1.1,0,0,0,21,47.47ZM24,45.81a.23.23,0,1,0,0,.45.23.23,0,1,0,0-.45ZM22.5,42.66a.3.3,0,0,0-.3.29.31.31,0,0,0,.3.3.3.3,0,0,0,.29-.3A.29.29,0,0,0,22.5,42.66Zm1.54,0a.33.33,0,1,0,.33.33A.33.33,0,0,0,24,42.62ZM24,41a.38.38,0,1,0,.38.38A.38.38,0,0,0,24,41Zm0,3.18a.29.29,0,0,0-.28.28.28.28,0,1,0,.56,0A.29.29,0,0,0,24,44.21ZM22.5,49a.09.09,0,1,0,.09.09A.09.09,0,0,0,22.5,49Zm-.13-8.78a.28.28,0,0,0,.13,0,.4.4,0,0,0,.4-.4.39.39,0,0,0-.11-.27Zm1.67-.8a.43.43,0,1,0,.43.43A.43.43,0,0,0,24,39.44ZM21,49.06a.06.06,0,0,0-.06,0,.06.06,0,0,0,.06.06.06.06,0,0,0,.05-.06A0,0,0,0,0,21,49.06Zm7.7-.18a.23.23,0,0,0-.23.23.23.23,0,0,0,.23.24.24.24,0,0,0,.24-.24A.23.23,0,0,0,28.66,48.88Zm0-1.59a.29.29,0,0,0,0,.57.29.29,0,0,0,0-.57Zm-10.78.25s0,0,0,0a0,0,0,0,0,0,0s0,0,0,0A0,0,0,0,0,17.88,47.54Zm1.58-2.88a.18.18,0,0,0,.13-.17,0,0,0,0,0,0,0ZM25.58,49a.16.16,0,0,0-.16.16.16.16,0,1,0,.32,0A.16.16,0,0,0,25.58,49ZM21,42.69a.26.26,0,0,0-.26.26.26.26,0,0,0,.52,0A.26.26,0,0,0,21,42.69ZM19.42,47.5a.07.07,0,0,0-.07.07.07.07,0,1,0,.14,0A.07.07,0,0,0,19.42,47.5Zm0,1.59,0,0,0,0,0,0ZM21,44.28a.21.21,0,0,0-.21.21.21.21,0,0,0,.21.21.21.21,0,0,0,.21-.21A.22.22,0,0,0,21,44.28Zm-1.54,1.63a.12.12,0,0,0-.13.12.13.13,0,0,0,.13.13.12.12,0,0,0,.12-.13A.12.12,0,0,0,19.42,45.91Z"></path>
					</g>
				</g>
			</svg>
		</g>
		<g transform="translate(124,6.924890518188477)">
			<g>
				<g>
					<path d="M12.69 0L4.66-10.01L4.66 0L1.63 0L1.63-15.62L3.98-15.62L12.12-5.37L12.12-15.60L15.16-15.60L15.16 0L12.69 0ZM23.45-2.66L31.26-2.66L31.26 0L20.41 0L20.41-15.62L31.06-15.62L31.06-12.96L23.45-12.96L23.45-9.20L30.03-9.20L30.03-6.73L23.45-6.73L23.45-2.66ZM47.32-15.62L47.32-12.96L42.32-12.96L42.32 0L39.31 0L39.31-12.96L34.32-12.96L34.32-15.62L47.32-15.62ZM65.18-8.47L62.56-15.58L65.35-15.58L67.11-10.41L68.87-15.58L71.69-15.58L69.03-8.47L71.01-3.48L75.43-15.62L78.73-15.62L72.37 0L69.82 0L67.11-6.56L64.41 0L61.86 0L55.54-15.62L58.80-15.62L63.24-3.48L65.18-8.47ZM88.43 0.11L88.43 0.11Q86.71 0.11 85.32-0.56Q83.92-1.23 82.92-2.34Q81.92-3.45 81.37-4.88Q80.82-6.31 80.82-7.81L80.82-7.81Q80.82-9.37 81.40-10.80Q81.98-12.23 83.01-13.33Q84.03-14.43 85.44-15.08Q86.85-15.73 88.50-15.73L88.50-15.73Q90.19-15.73 91.59-15.04Q92.98-14.34 93.97-13.22Q94.96-12.10 95.51-10.67Q96.06-9.24 96.06-7.77L96.06-7.77Q96.06-6.20 95.49-4.79Q94.92-3.37 93.91-2.28Q92.90-1.19 91.49-0.54Q90.08 0.11 88.43 0.11ZM83.90-7.81L83.90-7.81Q83.90-6.80 84.21-5.85Q84.51-4.91 85.10-4.18Q85.68-3.45 86.53-3.01Q87.37-2.57 88.45-2.57L88.45-2.57Q89.55-2.57 90.40-3.02Q91.25-3.48 91.83-4.22Q92.41-4.97 92.71-5.91Q93.01-6.84 93.01-7.81L93.01-7.81Q93.01-8.82 92.69-9.77Q92.37-10.71 91.78-11.44Q91.20-12.17 90.35-12.59Q89.51-13.02 88.45-13.02L88.45-13.02Q87.35-13.02 86.49-12.57Q85.64-12.12 85.06-11.38Q84.49-10.65 84.19-9.71Q83.90-8.78 83.90-7.81ZM103.43 0L100.40 0L100.40-15.62L107.30-15.62Q108.38-15.62 109.30-15.17Q110.21-14.72 110.87-13.98Q111.53-13.24 111.90-12.31Q112.28-11.37 112.28-10.43L112.28-10.43Q112.28-8.91 111.52-7.67Q110.76-6.42 109.46-5.87L109.46-5.87L113.02 0L109.61 0L106.42-5.24L103.43-5.24L103.43 0ZM103.43-12.96L103.43-7.90L107.24-7.90Q107.66-7.90 108.02-8.10Q108.38-8.29 108.65-8.63Q108.91-8.98 109.06-9.44Q109.22-9.90 109.22-10.43L109.22-10.43Q109.22-10.98 109.04-11.44Q108.87-11.90 108.57-12.24Q108.27-12.58 107.89-12.77Q107.50-12.96 107.11-12.96L107.11-12.96L103.43-12.96ZM128.47-15.62L128.47-12.96L123.47-12.96L123.47 0L120.46 0L120.46-12.96L115.46-12.96L115.46-15.62L128.47-15.62ZM142.52-15.62L145.54-15.62L145.54 0L142.52 0L142.52-6.67L135.44-6.67L135.44 0L132.40 0L132.40-15.62L135.44-15.62L135.44-9.31L142.52-9.31L142.52-15.62Z" transform="translate(-1.628, 15.729999999999999)"></path>
				</g>
				<g transform="translate(0,18.839999198913574)">
					<path d="M1.09 0L1.09-9.25L4.47-9.25Q5.22-9.25 5.88-9.10Q6.54-8.95 7.03-8.60Q7.52-8.25 7.80-7.68Q8.08-7.11 8.08-6.27L8.08-6.27Q8.08-5.46 7.79-4.86Q7.50-4.27 7.01-3.89Q6.51-3.50 5.86-3.32Q5.20-3.13 4.47-3.13L4.47-3.13L3.18-3.13L3.18 0L1.09 0ZM3.18-4.79L4.34-4.79Q6.04-4.79 6.04-6.27L6.04-6.27Q6.04-6.99 5.61-7.29Q5.18-7.59 4.34-7.59L4.34-7.59L3.18-7.59L3.18-4.79ZM14.69 0L14.69-9.25L20.47-9.25L20.47-7.49L16.77-7.49L16.77-5.63L19.92-5.63L19.92-3.89L16.77-3.89L16.77-1.76L20.61-1.76L20.61 0L14.69 0ZM29.54-7.59L29.54-4.99L30.62-4.99Q31.44-4.99 31.88-5.34Q32.31-5.69 32.31-6.37L32.31-6.37Q32.31-7.05 31.88-7.32Q31.44-7.59 30.62-7.59L30.62-7.59L29.54-7.59ZM34.80 0L32.46 0L30.69-3.33L29.54-3.33L29.54 0L27.46 0L27.46-9.25L30.79-9.25Q31.53-9.25 32.17-9.10Q32.82-8.96 33.30-8.63Q33.78-8.30 34.07-7.74Q34.35-7.19 34.35-6.37L34.35-6.37Q34.35-5.35 33.90-4.69Q33.46-4.03 32.70-3.70L32.70-3.70L34.80 0ZM41.19 0L41.19-9.25L47.02-9.25L47.02-7.49L43.28-7.49L43.28-5.35L46.48-5.35L46.48-3.59L43.28-3.59L43.28 0L41.19 0ZM57.24 0.17L57.24 0.17Q56.31 0.17 55.53-0.16Q54.76-0.50 54.21-1.12Q53.65-1.74 53.35-2.64Q53.04-3.53 53.04-4.67L53.04-4.67Q53.04-5.80 53.35-6.69Q53.65-7.57 54.21-8.18Q54.76-8.78 55.53-9.10Q56.31-9.42 57.24-9.42L57.24-9.42Q58.18-9.42 58.95-9.10Q59.72-8.78 60.28-8.17Q60.83-7.56 61.13-6.67Q61.44-5.79 61.44-4.67L61.44-4.67Q61.44-3.53 61.13-2.64Q60.83-1.74 60.28-1.12Q59.72-0.50 58.95-0.16Q58.18 0.17 57.24 0.17ZM57.24-1.63L57.24-1.63Q58.19-1.63 58.74-2.45Q59.30-3.26 59.30-4.67L59.30-4.67Q59.30-6.06 58.74-6.84Q58.19-7.62 57.24-7.62L57.24-7.62Q56.29-7.62 55.74-6.84Q55.18-6.06 55.18-4.67L55.18-4.67Q55.18-3.26 55.74-2.45Q56.29-1.63 57.24-1.63ZM70.27-7.59L70.27-4.99L71.35-4.99Q72.17-4.99 72.60-5.34Q73.03-5.69 73.03-6.37L73.03-6.37Q73.03-7.05 72.60-7.32Q72.17-7.59 71.35-7.59L71.35-7.59L70.27-7.59ZM75.53 0L73.19 0L71.42-3.33L70.27-3.33L70.27 0L68.18 0L68.18-9.25L71.52-9.25Q72.25-9.25 72.90-9.10Q73.54-8.96 74.03-8.63Q74.51-8.30 74.79-7.74Q75.08-7.19 75.08-6.37L75.08-6.37Q75.08-5.35 74.63-4.69Q74.18-4.03 73.43-3.70L73.43-3.70L75.53 0ZM81.92 0L81.92-9.25L84.13-9.25L85.68-5.09L86.23-3.47L86.29-3.47L86.84-5.09L88.34-9.25L90.54-9.25L90.54 0L88.60 0L88.60-3.39Q88.60-3.73 88.63-4.14Q88.66-4.55 88.70-4.97Q88.74-5.39 88.78-5.79Q88.83-6.20 88.87-6.54L88.87-6.54L88.81-6.54L88.05-4.40L86.63-0.81L85.79-0.81L84.37-4.40L83.64-6.54L83.58-6.54Q83.62-6.20 83.66-5.79Q83.71-5.39 83.74-4.97Q83.78-4.55 83.81-4.14Q83.83-3.73 83.83-3.39L83.83-3.39L83.83 0L81.92 0ZM99.67-3.83L101.64-3.83L101.43-4.68Q101.23-5.37 101.04-6.15Q100.86-6.93 100.68-7.66L100.68-7.66L100.62-7.66Q100.45-6.92 100.27-6.15Q100.09-5.37 99.90-4.68L99.90-4.68L99.67-3.83ZM102.63 0L102.07-2.20L99.24-2.20L98.68 0L96.55 0L99.44-9.25L101.95-9.25L104.84 0L102.63 0ZM110.85 0L110.85-9.25L112.99-9.25L115.40-4.65L116.31-2.61L116.37-2.61Q116.30-3.35 116.21-4.25Q116.11-5.16 116.11-5.98L116.11-5.98L116.11-9.25L118.10-9.25L118.10 0L115.96 0L113.55-4.61L112.64-6.62L112.58-6.62Q112.65-5.86 112.75-4.98Q112.84-4.10 112.84-3.28L112.84-3.28L112.84 0L110.85 0ZM124.84-4.57L124.84-4.57Q124.84-5.72 125.20-6.62Q125.55-7.52 126.15-8.14Q126.76-8.76 127.56-9.09Q128.36-9.42 129.25-9.42L129.25-9.42Q130.12-9.42 130.82-9.06Q131.52-8.69 131.99-8.21L131.99-8.21L130.84-6.92Q130.49-7.25 130.13-7.43Q129.76-7.62 129.28-7.62L129.28-7.62Q128.80-7.62 128.38-7.41Q127.96-7.20 127.65-6.82Q127.34-6.44 127.16-5.89Q126.98-5.33 126.98-4.64L126.98-4.64Q126.98-3.21 127.59-2.42Q128.20-1.63 129.23-1.63L129.23-1.63Q129.79-1.63 130.22-1.86Q130.64-2.08 130.98-2.45L130.98-2.45L132.13-1.19Q131.55-0.51 130.81-0.17Q130.06 0.17 129.20 0.17L129.20 0.17Q128.30 0.17 127.51-0.13Q126.72-0.44 126.12-1.04Q125.52-1.63 125.18-2.52Q124.84-3.40 124.84-4.57ZM138.54 0L138.54-9.25L144.32-9.25L144.32-7.49L140.62-7.49L140.62-5.63L143.77-5.63L143.77-3.89L140.62-3.89L140.62-1.76L144.46-1.76L144.46 0L138.54 0Z" transform="translate(-1.0919915423771545, 9.416654339460136)"></path>
				</g>
			</g>
		</g>
	</g>
</svg>
